<svg width="1200" height="630" viewBox="0 0 1200 630" fill="none" xmlns="http://www.w3.org/2000/svg">
<g id="flame" clip-path="url(#clip0_1_2)">
<rect width="1200" height="630" fill="#292C3C"/>
<g id="logo">
<path id="flame_2" d="M54.8571 10.1667L58.6666 5.09525C59.619 3.80954 61.1429 3.04764 62.7381 3.04764C65.5238 3.04764 67.8095 5.33335 67.8095 8.11906V13.4048C67.8095 16.5238 69.0953 19.5238 71.3571 21.6666L91.5238 40.9048C103.143 52 109.714 67.381 109.714 83.4524C109.714 106.381 91.1429 124.952 68.2143 124.952H64C38.7619 124.952 18.2858 104.476 18.2858 79.2381V78.3334C18.2858 66.7143 22.9048 55.5714 31.119 47.3571L31.9524 46.5238C32.9524 45.5238 34.3334 44.9524 35.7619 44.9524C38.7381 44.9524 41.1429 47.3571 41.1429 50.3334V71.619C41.1429 80.0238 47.9761 86.8571 56.381 86.8571C64.7858 86.8571 71.619 80.0238 71.619 71.619V70.6905C71.619 66.4048 69.9048 62.2858 66.881 59.2619L57.6905 50.0714C51.9761 44.3571 48.7619 36.5714 48.7619 28.4763C48.7619 21.881 50.9048 15.4286 54.8571 10.1667Z" fill="url(#paint0_linear_1_2)"/>
</g>
<text id="main_title" fill="white" xml:space="preserve" style="white-space: pre" font-family="Inter" font-size="96" font-weight="600" letter-spacing="0em"><tspan x="50%" y="72" dominant-baseline="middle" text-anchor="middle">FlameWolf Docs</tspan></text>
<text id="title" fill="white" xml:space="preserve" style="white-space: pre" font-family="Inter" font-size="72" font-weight="600" letter-spacing="0em"><tspan x="50%" y="244.682" dominant-baseline="middle" text-anchor="middle">&#60;doc title&#62;</tspan></text>
<text id="desc" fill="white" xml:space="preserve" style="white-space: pre" font-family="Inter" font-size="32" font-weight="600" letter-spacing="0em"><tspan x="50%" y="326" dominant-baseline="middle" text-anchor="middle">&#60;doc desc&#62;</tspan></text>
</g>
<defs>
<linearGradient id="paint0_linear_1_2" x1="64" y1="3.04764" x2="64" y2="124.952" gradientUnits="userSpaceOnUse">
<stop stop-color="#7CDBF9"/>
<stop offset="1" stop-color="#7D42C7"/>
</linearGradient>
<clipPath id="clip0_1_2">
<rect width="1200" height="630" fill="white"/>
</clipPath>
</defs>
</svg>
